{"title":"The Amazing Spider-Man  2 Il Potere Di Electro (2014) [XviD - It","uid":11113328,"size":2559980248,"categoryP":"video","categoryS":"movies","magnet":"?xt=urn:btih:712a342fc9c92f9cc7d3181a4e3dd6f93926e6aa&amp;dn=The+Amazing+Spider-Man++2+Il+Potere+Di+Electro+%282014%29+%5BXviD+-+It&amp;tr=udp%3A%2F%2Ftracker.openbittorrent.com%3A80&amp;tr=udp%3A%2F%2Fopen.demonii.com%3A1337&amp;tr=udp%3A%2F%2Ftracker.coppersurfer.tk%3A6969&amp;tr=udp%3A%2F%2Fexodus.desync.com%3A6969","seeders":1,"leechers":0,"uploader":"robbyrs4","files":4,"time":1411832378,"description":"The Amazing Spider-Man  2 Il Potere Di Electro (2014) [XviD - Italian English Ac3 5.1 - Sub Ita Eng] MIRCrew\n\n\n\n[center][color=red][b][img]http://s19.postimg.org/mqmhlwtlf/Mircrew_original_red_skull.png[/img]\n\n[u]NO FOUND ONLY ORIGINAL RELEASE[/u]\n\n[size=36pt]The Amazing Spider-Man  2 \nIl Potere Di Electro \n(2014)[/size]\n\n[img]http://s13.postimg.org/xa09ghnk7/image.jpg[/img]\n\n\n\n[URL=http://www.imdb.com/title/tt1872181/][IMG]http://www.userlogos.org/files/logos/Sucka/imdb_new.png[/IMG][/URL]  \n\n\n[img]http://imageshack.us/a/img534/6946/zcu.gif[/img]\n\nTitolo originale \tThe Amazing Spider-Man 2\nLingua originale \tinglese\nPaese di produzione \tStati Uniti d'America\nAnno \t2014\nDurata \t142 min\n\nRapporto \t2,35 : 1\nGenere \tazione, drammatico, supereroi\nRegia \tMarc Webb\nSoggetto \tAlex Kurtzman, Roberto Orci, Jeff Pinkner, James Vanderbilt dal fumetto della Marvel creato da Stan Lee e Steve Ditko\nSceneggiatura \tAlex Kurtzman, Roberto Orci, Jeff Pinkner\nProduttore \tAvi Arad, Matthew Tolmach\nProduttore esecutivo \tAlex Kurtzman, Roberto Orci, E. Bennett Walsh, Stan Lee\nCasa di produzione \tColumbia Pictures, Marvel Enterprises, Avi Arad Productions, Matt Tolmach Productions\nDistribuzione (Italia) \tSony Pictures\nFotografia \tDaniel Mindel\nMontaggio \tPietro Scalia\nEffetti speciali \tH. Barclay Aaris, Lindsay Boffoli, John Kelso, Tim Phoenix\nMusiche \tHans Zimmer, Pharrell Williams, Johnny Marr\nScenografia \tMark Friedberg\nCostumi \tDeborah Lynn Scott\nTrucco \tChristina Grant\n\n\n[img]http://imageshack.us/a/img4/8946/u96.gif[/img]\n\n\n    Andrew Garfield: Peter Parker/Spider-Man\n    Emma Stone: Gwen Stacy\n    Jamie Foxx: Max Dillon/Electro\n    Dane DeHaan: Harry Osborn/Green Goblin\n    Sally Field: May Parker\n    Chris Cooper: Norman Osborn\n    Paul Giamatti: Aleksei Sytsevich/Rhino\n    Marton Csokas: Dr. Kafka\n    Colm Feore: Donald Menken\n    Felicity Jones: Felicia Hardy\n    B.J. Novak: Alistair Smythe\n    Denis Leary: Cap. George Stacy\n    Campbell Scott: Richard Parker\n    Embeth Davidtz: Mary Parker\n    Martin Sheen: Ben Parker\n    Michael Massee: Gustav Fiers\n    Sarah Gadon: Kari\n    Stan Lee: Uomo tra il pubblico alla cerimonia di consegna dei diplomi\n\nDoppiatori originali\n\n    Sarah Gadon: Kari\n\nDoppiatori italiani\n\n    Lorenzo De Angelis: Peter Parker/Spider-Man\n    Emanuela Damasio: Gwen Stacy\n    Franco Mannella: Max Dillon/Electro\n    Flavio Aquilone: Harry Osborn/Green Goblin\n    Melina Martello: May Parker\n    Rodolfo Bianchi: Norman Osborn\n    Massimo Rossi: Aleksei Sytsevich/Rhino\n    Oreste Baldini: Dr. Kafka\n    Luciano Roffi: Donald Menken\n    Valentina Favazza: Felicia Hardy\n    Alessandro Quarta: Alistair Smythe\n    Sergio Lucchetti: Richard Parker\n    Michela Alborghetti: Mary Parker\n    Giorgio Lopez: Gustav Fiers\n\n\n\n[img]http://imageshack.us/a/img844/6546/cupz.gif[/img]\n\nAnni prima, Richard Parker registra un videomessaggio per spiegare la sua imminente scomparsa. Dopo aver lasciato il piccolo Peter dagli zii, lui e sua moglie Mary salgono a bordo di un aereo privato, ma un sicario tenta di ucciderli e, dopo uno scontro, l'aereo precipita nell'oceano.\n\nAi giorni nostri, Peter continua la sua lotta al crimine nei panni di Spider-Man. Mentre affronta Aleksei Sytsevich, un criminale russo, nell'inseguimento salva Max Dillon, un impiegato della Oscorp, e viene chiamato da Gwen, che gli ricorda che sta facendo tardi alla loro cerimonia dei diplomi.......\n\n[img]http://imageshack.us/a/img202/6180/4e6.gif[/img]\n\nWe've always known that Spider-Man's most important conflict has been within himself: the struggle between the ordinary obligations of Peter Parker and the extraordinary responsibilities of Spider-Man. But in The Amazing Spider-Man 2, Peter Parker finds that his greatest battle is about to begin. It's great to be Spider-Man. For Peter Parker, there's no feeling quite like swinging between skyscrapers......\n &lt;a href=&quot;\nhttp://s13.postimg.org/8xgig0hon/vlcsnap_2014_09_27_14h36m23s29.png&quot; rel=&quot;nofollow&quot; target=&quot;_NEW&quot;&gt;\nhttp://s13.postimg.org/8xgig0hon/vlcsnap_2014_09_27_14h36m23s29.png&lt;/a&gt;\n &lt;a href=&quot;\nhttp://s13.postimg.org/nqqkn101z/vlcsnap_2014_09_27_14h36m37s180.png&quot; rel=&quot;nofollow&quot; target=&quot;_NEW&quot;&gt;\nhttp://s13.postimg.org/nqqkn101z/vlcsnap_2014_09_27_14h36m37s180.png&lt;/a&gt;\n &lt;a href=&quot;\nhttp://s13.postimg.org/4aage8ubr/vlcsnap_2014_09_27_14h37m52s152.png&quot; rel=&quot;nofollow&quot; target=&quot;_NEW&quot;&gt;\nhttp://s13.postimg.org/4aage8ubr/vlcsnap_2014_09_27_14h37m52s152.png&lt;/a&gt;\n\n\n[img]http://imageshack.us/a/img571/2166/an4p.gif[/img]\n\n\n\n[spoiler]\nGeneral\nComplete name                            : A:u torrentfattiThe Amazing Spider-Man  2 Il Potere Di Electro (2014).ita.eng.sub.ita.eng.MIRCrewThe Amazing Spider-Man  2 Il Potere Di Electro (2014).ita.eng.sub.ita.eng.MIRCrew.avi\nFormat                                   : AVI\nFormat/Info                              : Audio Video Interleave\nFormat profile                           : OpenDML\nFile size                                : 2.38 GiB\nDuration                                 : 2h 21mn\nOverall bit rate                         : 2 411 Kbps\nWriting application                      : VirtualDubMod 1.5.4.1 (build 2178/release)\nWriting library                          : VirtualDubMod build 2178/release\n\nVideo\nID                                       : 0\nFormat                                   : MPEG-4 Visual\nFormat profile                           : Simple@L3\nFormat settings, BVOP                    : No\nFormat settings, QPel                    : No\nFormat settings, GMC                     : No warppoints\nFormat settings, Matrix                  : Default (H.263)\nCodec ID                                 : XVID\nCodec ID/Hint                            : XviD\nDuration                                 : 2h 21mn\nBit rate                                 : 1 498 Kbps\nWidth                                    : 720 pixels\nHeight                                   : 300 pixels\nDisplay aspect ratio                     : 2.40:1\nFrame rate                               : 23.976 fps\nColor space                              : YUV\nChroma subsampling                       : 4:2:0\nBit depth                                : 8 bits\nScan type                                : Progressive\nCompression mode                         : Lossy\nBits/(Pixel*Frame)                       : 0.289\nStream size                              : 1.48 GiB (62%)\nWriting library                          : XviD 64\n\nAudio #1\nID                                       : 1\nFormat                                   : AC-3\nFormat/Info                              : Audio Coding 3\nMode extension                           : CM (complete main)\nCodec ID                                 : 2000\nDuration                                 : 2h 21mn\nBit rate mode                            : Constant\nBit rate                                 : 448 Kbps\nChannel(s)                               : 6 channels\nChannel positions                        : Front: L C R, Side: L R, LFE\nSampling rate                            : 48.0 KHz\nBit depth                                : 16 bits\nCompression mode                         : Lossy\nStream size                              : 454 MiB (19%)\nAlignment                                : Split accross interleaves\nInterleave, duration                     : 42 ms (1.00 video frame)\nInterleave, preload duration             : 500 ms\n\nAudio #2\nID                                       : 2\nFormat                                   : AC-3\nFormat/Info                              : Audio Coding 3\nMode extension                           : CM (complete main)\nCodec ID                                 : 2000\nDuration                                 : 2h 21mn\nBit rate mode                            : Constant\nBit rate                                 : 448 Kbps\nChannel(s)                               : 6 channels\nChannel positions                        : Front: L C R, Side: L R, LFE\nSampling rate                            : 48.0 KHz\nBit depth                                : 16 bits\nCompression mode                         : Lossy\nStream size                              : 454 MiB (19%)\nAlignment                                : Split accross interleaves\nInterleave, duration                     : 42 ms (1.00 video frame)\nInterleave, preload duration             : 500 ms\n\n\n[/spoiler][/b][/color]\n\n[/center]\n\n","torrent":{"xt":"urn:btih:712a342fc9c92f9cc7d3181a4e3dd6f93926e6aa","amp;dn":"The+Amazing+Spider-Man++2+Il+Potere+Di+Electro+%282014%29+%5BXviD+-+It","amp;tr":["udp%3A%2F%2Ftracker.openbittorrent.com%3A80","udp%3A%2F%2Fopen.demonii.com%3A1337","udp%3A%2F%2Ftracker.coppersurfer.tk%3A6969","udp%3A%2F%2Fexodus.desync.com%3A6969"],"infoHash":"712a342fc9c92f9cc7d3181a4e3dd6f93926e6aa","infoHashBuffer":{"type":"Buffer","data":[113,42,52,47,201,201,47,156,199,211,24,26,78,61,214,249,57,38,230,170]},"announce":[],"urlList":[]}}